<?xml version="1.0" encoding="UTF-8" standalone="no"?>
<!DOCTYPE svg PUBLIC "-//W3C//DTD SVG 1.1//EN"
 "http://www.w3.org/Graphics/SVG/1.1/DTD/svg11.dtd">
<!-- Generated by graphviz version 2.40.1 (20161225.0304)
 -->
<!-- Title: dependencies Pages: 1 -->
<svg width="504pt" height="349pt"
 viewBox="0.00 0.00 504.00 349.00" xmlns="http://www.w3.org/2000/svg" xmlns:xlink="http://www.w3.org/1999/xlink">
<g id="graph0" class="graph" transform="scale(1 1) rotate(0) translate(4 345)">
<title>dependencies</title>
<polygon fill="#ffffff" stroke="transparent" points="-4,4 -4,-345 500,-345 500,4 -4,4"/>
<text text-anchor="start" x="227.0091" y="-42.4" font-family="sans-serif" font-weight="bold" font-size="14.00" fill="#000000">Legend</text>
<polygon fill="#ffffb3" stroke="transparent" points="14,-10 14,-30 34,-30 34,-10 14,-10"/>
<text text-anchor="start" x="37.629" y="-15.4" font-family="sans-serif" font-size="14.00" fill="#000000"> &#160;Declarations</text>
<polygon fill="#8dd3c7" stroke="transparent" points="127,-10 127,-30 147,-30 147,-10 127,-10"/>
<text text-anchor="start" x="150.7251" y="-15.4" font-family="sans-serif" font-size="14.00" fill="#000000"> &#160;Module</text>
<polygon fill="#80b1d3" stroke="transparent" points="213,-10 213,-30 233,-30 233,-10 213,-10"/>
<text text-anchor="start" x="236.7812" y="-15.4" font-family="sans-serif" font-size="14.00" fill="#000000"> &#160;Bootstrap</text>
<polygon fill="#fdb462" stroke="transparent" points="310,-10 310,-30 330,-30 330,-10 310,-10"/>
<text text-anchor="start" x="333.6732" y="-15.4" font-family="sans-serif" font-size="14.00" fill="#000000"> &#160;Providers</text>
<polygon fill="#fb8072" stroke="transparent" points="406,-10 406,-30 426,-30 426,-10 406,-10"/>
<text text-anchor="start" x="429.7258" y="-15.4" font-family="sans-serif" font-size="14.00" fill="#000000"> &#160;Exports</text>
<g id="clust1" class="cluster">
<title>cluster_AppModule</title>
<polygon fill="none" stroke="#000000" stroke-dasharray="1,5" points="66,-70 66,-333 430,-333 430,-70 66,-70"/>
</g>
<g id="clust2" class="cluster">
<title>cluster_AppModule_declarations</title>
<polygon fill="none" stroke="#000000" points="74,-143 74,-195 422,-195 422,-143 74,-143"/>
</g>
<g id="clust3" class="cluster">
<title>cluster_AppModule_AppComponent_providers</title>
<polygon fill="none" stroke="#000000" points="290,-78 290,-130 422,-130 422,-78 290,-78"/>
</g>
<g id="clust8" class="cluster">
<title>cluster_AppModule_bootstrap</title>
<polygon fill="none" stroke="#000000" points="195,-273 195,-325 319,-325 319,-273 195,-273"/>
</g>
<!-- AppComponent -->
<g id="node1" class="node">
<title>AppComponent</title>
<polygon fill="#ffffb3" stroke="#000000" points="413.9399,-187 308.0601,-187 308.0601,-151 413.9399,-151 413.9399,-187"/>
<text text-anchor="middle" x="361" y="-164.8" font-family="Times,serif" font-size="14.00" fill="#000000">AppComponent</text>
</g>
<!-- AppModule -->
<g id="node4" class="node">
<title>AppModule</title>
<polygon fill="#8dd3c7" stroke="#000000" points="298.6571,-252 295.6571,-256 274.6571,-256 271.6571,-252 215.3429,-252 215.3429,-216 298.6571,-216 298.6571,-252"/>
<text text-anchor="middle" x="257" y="-229.8" font-family="Times,serif" font-size="14.00" fill="#000000">AppModule</text>
</g>
<!-- AppComponent&#45;&gt;AppModule -->
<g id="edge1" class="edge">
<title>AppComponent&#45;&gt;AppModule</title>
<path fill="none" stroke="#000000" d="M308.0752,-169C299.7502,-169 293.8302,-169 293.8302,-169 293.8302,-169 293.8302,-205.8939 293.8302,-205.8939"/>
<polygon fill="#000000" stroke="#000000" points="290.3303,-205.8938 293.8302,-215.8939 297.3303,-205.8939 290.3303,-205.8938"/>
</g>
<!-- Autosize -->
<g id="node2" class="node">
<title>Autosize</title>
<polygon fill="#ffffb3" stroke="#000000" points="289.762,-187 224.238,-187 224.238,-151 289.762,-151 289.762,-187"/>
<text text-anchor="middle" x="257" y="-164.8" font-family="Times,serif" font-size="14.00" fill="#000000">Autosize</text>
</g>
<!-- Autosize&#45;&gt;AppModule -->
<g id="edge3" class="edge">
<title>Autosize&#45;&gt;AppModule</title>
<path fill="none" stroke="#000000" d="M257,-187.1061C257,-187.1061 257,-205.991 257,-205.991"/>
<polygon fill="#000000" stroke="#000000" points="253.5001,-205.9909 257,-215.991 260.5001,-205.991 253.5001,-205.9909"/>
</g>
<!-- QTableComponent -->
<g id="node3" class="node">
<title>QTableComponent</title>
<polygon fill="#ffffb3" stroke="#000000" points="205.8118,-187 82.1882,-187 82.1882,-151 205.8118,-151 205.8118,-187"/>
<text text-anchor="middle" x="144" y="-164.8" font-family="Times,serif" font-size="14.00" fill="#000000">QTableComponent</text>
</g>
<!-- QTableComponent&#45;&gt;AppModule -->
<g id="edge4" class="edge">
<title>QTableComponent&#45;&gt;AppModule</title>
<path fill="none" stroke="#000000" d="M205.7709,-169C213.9896,-169 219.6455,-169 219.6455,-169 219.6455,-169 219.6455,-205.8939 219.6455,-205.8939"/>
<polygon fill="#000000" stroke="#000000" points="216.1456,-205.8938 219.6455,-215.8939 223.1456,-205.8939 216.1456,-205.8938"/>
</g>
<!-- AppComponent  -->
<g id="node6" class="node">
<title>AppComponent </title>
<polygon fill="#80b1d3" stroke="#000000" points="311.439,-317 202.561,-317 202.561,-281 311.439,-281 311.439,-317"/>
<text text-anchor="middle" x="257" y="-294.8" font-family="Times,serif" font-size="14.00" fill="#000000">AppComponent </text>
</g>
<!-- AppModule&#45;&gt;AppComponent  -->
<g id="edge5" class="edge">
<title>AppModule&#45;&gt;AppComponent </title>
<path fill="none" stroke="#000000" stroke-dasharray="1,5" d="M257,-252.1061C257,-252.1061 257,-270.991 257,-270.991"/>
<polygon fill="#000000" stroke="#000000" points="253.5001,-270.9909 257,-280.991 260.5001,-270.991 253.5001,-270.9909"/>
</g>
<!-- DataService -->
<g id="node5" class="node">
<title>DataService</title>
<ellipse fill="#fdb462" stroke="#000000" cx="356" cy="-104" rx="58.4415" ry="18"/>
<text text-anchor="middle" x="356" y="-99.8" font-family="Times,serif" font-size="14.00" fill="#000000">DataService</text>
</g>
<!-- DataService&#45;&gt;AppComponent -->
<g id="edge2" class="edge">
<title>DataService&#45;&gt;AppComponent</title>
<path fill="none" stroke="#000000" d="M361,-122.1061C361,-122.1061 361,-140.991 361,-140.991"/>
<polygon fill="#000000" stroke="#000000" points="357.5001,-140.9909 361,-150.991 364.5001,-140.991 357.5001,-140.9909"/>
</g>
</g>
</svg>
